name Walk3.mot
datacolumns 19
datarows 30
range 1.62000000 1.76500000
endheader

                time	   L_ground_force_vx	   L_ground_force_vy	   L_ground_force_vz	   L_ground_force_px	   L_ground_force_py	   L_ground_force_pz	   R_ground_force_vx	   R_ground_force_vy	   R_ground_force_vz	   R_ground_force_px	   R_ground_force_py	   R_ground_force_pz	   L_ground_torque_x	   L_ground_torque_y	   L_ground_torque_z	   R_ground_torque_x	   R_ground_torque_y	   R_ground_torque_z	
          1.62000000	          6.65816640	        685.54033026	         52.75790762	         -0.23706933	          0.00000000	         -0.05083209	          0.02198063	          0.29562034	          0.02175538	         -0.00010369	          0.00000000	         -0.00012241	          0.00000000	          0.62655842	          0.00000000	          0.00000000	         -0.00565426	          0.00000000	
          1.62500000	          7.48256574	        690.88948475	         52.85849447	         -0.23415687	          0.00000000	         -0.05102019	          0.07106588	          0.03252763	          0.00608446	         -0.00025444	          0.00000000	         -0.00027529	          0.00000000	          0.65982683	          0.00000000	          0.00000000	         -0.00096912	          0.00000000	
          1.63000000	          8.43945569	        696.70595863	         52.87611382	         -0.23134008	          0.00000000	         -0.05116097	          0.13884400	         -0.38174538	         -0.01910284	         -0.00045814	          0.00000000	         -0.00047973	          0.00000000	          0.68362898	          0.00000000	          0.00000000	          0.00645632	          0.00000000	
          1.63500000	          9.57289715	        703.02506126	         52.81367114	         -0.22864062	          0.00000000	         -0.05125363	          0.22741247	         -0.98067436	         -0.05602349	         -0.00071928	          0.00000000	         -0.00073937	          0.00000000	          0.69831294	          0.00000000	          0.00000000	          0.01723914	          0.00000000	
          1.64000000	         10.93117914	        709.87090635	         52.67467615	         -0.22607995	          0.00000000	         -0.05129766	          0.33747800	         -1.79368739	         -0.10668753	         -0.00103779	          0.00000000	         -0.00105307	          0.00000000	          0.70463089	          0.00000000	          0.00000000	          0.03192758	          0.00000000	
          1.64500000	         12.56235463	        717.24766939	         52.46154331	         -0.22367850	          0.00000000	         -0.05129239	          0.46749144	         -2.84027139	         -0.17253443	         -0.00140649	          0.00000000	         -0.00141237	          0.00000000	          0.70373391	          0.00000000	          0.00000000	          0.05089488	          0.00000000	
          1.65000000	         14.51234778	        725.13095825	         52.17329791	         -0.22145371	          0.00000000	         -0.05123778	          0.61257694	         -4.12200802	         -0.25393642	         -0.00180797	          0.00000000	         -0.00179846	          0.00000000	          0.69654447	          0.00000000	          0.00000000	          0.07419533	          0.00000000	
          1.65500000	         16.82468219	        733.46102279	         51.80334060	         -0.21941844	          0.00000000	         -0.05113671	          0.76327238	         -5.61236278	         -0.34955554	         -0.00221105	          0.00000000	         -0.00217873	          0.00000000	          0.68346687	          0.00000000	          0.00000000	          0.10137920	          0.00000000	
          1.66000000	         19.53884760	        742.13538688	         51.33886182	         -0.21757893	          0.00000000	         -0.05099534	          0.90413089	         -7.24422983	         -0.45555204	         -0.00256692	          0.00000000	         -0.00250301	          0.00000000	          0.66432811	          0.00000000	          0.00000000	          0.13126629	          0.00000000	
          1.66500000	         22.68700414	        751.00792120	         50.76176000	         -0.21593428	          0.00000000	         -0.05082109	          1.01227805	         -8.89551324	         -0.56465847	         -0.00280529	          0.00000000	         -0.00270000	          0.00000000	          0.63837649	          0.00000000	          0.00000000	          0.16168278	          0.00000000	
          1.67000000	         26.28860097	        759.89324270	         50.05081448	         -0.21447677	          0.00000000	         -0.05062204	          1.05607824	        -10.37342451	         -0.66515858	         -0.00283103	          0.00000000	         -0.00267420	          0.00000000	          0.60403755	          0.00000000	          0.00000000	          0.18917362	          0.00000000	
          1.67500000	         30.34174089	        768.57671729	         49.18479738	         -0.21319074	          0.00000000	         -0.05040519	          0.99413526	        -11.39871483	         -0.73984368	         -0.00252202	          0.00000000	         -0.00230416	          0.00000000	          0.55897433	          0.00000000	          0.00000000	          0.20871186	          0.00000000	
          1.68000000	         34.81638913	        776.83043763	         48.14803935	         -0.21205229	          0.00000000	         -0.05017461	          0.77493783	        -11.59175014	         -0.76506261	         -0.00172911	          0.00000000	         -0.00144295	          0.00000000	          0.50066457	          0.00000000	          0.00000000	          0.21343935	          0.00000000	
          1.68500000	         39.65855548	        784.42686908	         46.93859008	         -0.21103230	          0.00000000	         -0.04993126	          0.33755423	        -10.46317719	         -0.71003480	         -0.00027943	          0.00000000	          0.00007795	          0.00000000	          0.42746603	          0.00000000	          0.00000000	          0.19448825	          0.00000000	
          1.69000000	         44.80638142	        791.13691628	         45.56977553	         -0.21010098	          0.00000000	         -0.04967363	         -0.38612281	         -7.41289988	         -0.53665832	          0.00201564	          0.00000000	          0.00243999	          0.00000000	          0.33974124	          0.00000000	          0.00000000	          0.14095042	          0.00000000	
          1.69500000	         50.20343304	        796.72113854	         44.06394068	         -0.20923190	          0.00000000	         -0.04939992	         -1.46699031	         -1.74214062	         -0.20011352	          0.00534594	          0.00000000	          0.00582240	          0.00000000	          0.24002132	          0.00000000	          0.00000000	          0.04008147	          0.00000000	
          1.70000000	         55.79820319	        800.92788767	         42.44808629	         -0.20840331	          0.00000000	         -0.04910871	         -2.97155206	          7.31558117	          0.34936724	          0.00987984	          0.00000000	          0.01037879	          0.00000000	          0.13241665	          0.00000000	          0.00000000	         -0.12215470	          0.00000000	
          1.70500000	         61.53841583	        803.49030435	         40.74984709	         -0.20759816	          0.00000000	         -0.04879929	         -4.95125932	         20.53779218	          1.16312960	          0.01573145	          0.00000000	          0.01620394	          0.00000000	          0.02196855	          0.00000000	          0.00000000	         -0.36007739	          0.00000000	
          1.71000000	         67.36665197	        804.11928750	         38.99200690	         -0.20680426	          0.00000000	         -0.04847178	         -7.42774535	         38.62335326	          2.28864757	          0.02291619	          0.00000000	          0.02328916	          0.00000000	         -0.08555209	          0.00000000	          0.00000000	         -0.68668154	          0.00000000	
          1.71500000	         73.21755015	        802.49875924	         37.18854855	         -0.20601452	          0.00000000	         -0.04812477	        -10.37347783	         62.06226625	          3.76150293	          0.03129374	          0.00000000	          0.03146550	          0.00000000	         -0.18442377	          0.00000000	          0.00000000	         -1.11129431	          0.00000000	
          1.72000000	         79.01514936	        798.28718066	         35.34332093	         -0.20522599	          0.00000000	         -0.04775473	        -13.68765220	         90.95841145	          5.59434478	          0.04049811	          0.00000000	          0.04033494	          0.00000000	         -0.26989326	          0.00000000	          0.00000000	         -1.63637306	          0.00000000	
          1.72500000	         84.66992257	        791.12569846	         33.44874937	         -0.20443954	          0.00000000	         -0.04735758	        -17.17201544	        124.80724436	          7.76268323	          0.04988255	          0.00000000	          0.04922030	          0.00000000	         -0.33837334	          0.00000000	          0.00000000	         -2.25311977	          0.00000000	
          1.73000000	         90.07882758	        780.65171405	         31.48757976	         -0.20366051	          0.00000000	         -0.04693007	        -20.58308132	        162.36207972	         10.18914478	          0.05876084	          0.00000000	          0.05743141	          0.00000000	         -0.38764017	          0.00000000	          0.00000000	         -2.93210263	          0.00000000	
          1.73500000	         95.12807269	        766.51863497	         29.43828349	         -0.20289725	          0.00000000	         -0.04646996	        -23.81871544	        201.87842875	         12.72171837	          0.06672513	          0.00000000	          0.06457130	          0.00000000	         -0.41725260	          0.00000000	          0.00000000	         -3.61047571	          0.00000000	
          1.74000000	         99.69602493	        748.42321243	         27.27989458	         -0.20216010	          0.00000000	         -0.04597555	        -27.01086082	        241.65803183	         15.11738701	          0.07361091	          0.00000000	          0.07048018	          0.00000000	         -0.42801049	          0.00000000	          0.00000000	         -4.19679288	          0.00000000	
          1.74500000	        103.65342165	        726.13442645	         24.99481823	         -0.20146022	          0.00000000	         -0.04544790	        -30.41461659	        280.49163304	         17.07442041	          0.07941933	          0.00000000	          0.07515897	          0.00000000	         -0.42148021	          0.00000000	          0.00000000	         -4.59712225	          0.00000000	
          1.75000000	        106.86030337	        699.51893014	         22.57211702	         -0.20080565	          0.00000000	         -0.04489169	        -34.23352503	        317.79083851	         18.30434294	          0.08424548	          0.00000000	          0.07870682	          0.00000000	         -0.40029533	          0.00000000	          0.00000000	         -4.74372843	          0.00000000	
          1.75500000	        109.15897327	        668.55923441	         20.01167945	         -0.20019672	          0.00000000	         -0.04431496	        -38.51566514	        353.46873100	         18.59560292	          0.08822870	          0.00000000	          0.08127493	          0.00000000	         -0.36802449	          0.00000000	          0.00000000	         -4.60921993	          0.00000000	
          1.76000000	        110.36880011	        633.36455217	         17.32984464	         -0.19962036	          0.00000000	         -0.04372869	        -43.15544933	        387.71393272	         17.84764187	          0.09152134	          0.00000000	          0.08303463	          0.00000000	         -0.32798541	          0.00000000	          0.00000000	         -4.20470864	          0.00000000	
          1.76500000	        110.30411148	        594.17771725	         14.55997716	         -0.19904504	          0.00000000	         -0.04314299	        -47.96459224	        420.80014009	         16.07707606	          0.09427217	          0.00000000	          0.08415651	          0.00000000	         -0.28279245	          0.00000000	          0.00000000	         -3.56842323	          0.00000000	
